TITLE: Demo_edit_v1.edl
FCM: NON-DROP FRAME

000001  A040C004_220611_ABCD  V     C        19:06:02:11 19:06:10:17 01:00:00:00 01:00:08:06
* FROM CLIP NAME: A040C004_220611_ABCD.mov

000002  B018C003_220611_RYX1  V     C        18:15:13:00 18:15:20:12 01:00:08:06 01:00:15:22
* FROM CLIP NAME: B018C003_220611_RYX1.mov

000003  B018C008_220611_RYX1  V     C        18:43:04:00 18:43:06:12 01:00:15:22 01:00:18:05
* FROM CLIP NAME: B018C008_220611_RYX1.mov

000004  B018C008_220611_RYX1  V     C        18:43:07:20 18:43:10:01 01:00:18:05 01:00:20:11
* FROM CLIP NAME: B018C008_220611_RYX1.mov

000005  B018C008_220611_RYX1  V     C        18:43:20:09 18:43:22:01 01:00:20:11 01:00:22:03
* FROM CLIP NAME: B018C008_220611_RYX1.mov

000006  B018C008_220611_RYX1  V     C        18:43:22:18 18:43:28:04 01:00:22:03 01:00:27:14
* FROM CLIP NAME: B018C008_220611_RYX1.mov

000007  B001C002_220528_RYX1  V     C        06:59:29:06 06:59:35:19 01:00:27:14 01:00:34:02
* FROM CLIP NAME: B001C002_220528_RYX1.mov

000008  A002C019_220528_ABCD  V     C        14:40:01:18 14:40:06:05 01:00:34:02 01:00:38:14
* FROM CLIP NAME: A002C019_220528_ABCD.mov

000009  B001C005_220528_RYX1  V     C        07:25:31:12 07:25:32:10 01:00:38:14 01:00:39:12
* FROM CLIP NAME: B001C005_220528_RYX1.mov

000010  B001C005_220528_RYX1  V     C        07:25:10:22 07:25:12:00 01:00:39:12 01:00:40:15
* FROM CLIP NAME: B001C005_220528_RYX1.mov

000011  B001C009_220528_RYX1  V     C        07:38:37:13 07:38:40:14 01:00:40:15 01:00:43:16
* FROM CLIP NAME: B001C009_220528_RYX1.mov